<?xml version="1.0" encoding="iso-8859-1"?>
<!-- Uploaded to: SVG Repo, www.svgrepo.com, Generator: SVG Repo Mixer Tools -->
<svg fill="#000000" height="800px" width="800px" version="1.1" id="Layer_1" xmlns="http://www.w3.org/2000/svg" xmlns:xlink="http://www.w3.org/1999/xlink" 
	 viewBox="0 0 512 512" xml:space="preserve">
<g>
	<g>
		<path d="M398.116,151.469c-11.215-10.354-21.033-25.317-31.429-41.161c-12.091-18.428-24.593-37.482-41.312-52.577
			C305.094,39.417,282.401,30.516,256,30.516s-49.094,8.901-69.375,27.213c-16.719,15.096-29.221,34.15-41.312,52.577
			c-10.395,15.844-20.214,30.809-31.429,41.161C71.289,190.79,0,256.603,0,348.25c0,48.089,22.807,83.305,67.79,104.669
			c41.031,19.488,100.836,28.564,188.21,28.564s147.179-9.076,188.21-28.564C489.193,431.555,512,396.339,512,348.25
			C512,256.603,440.711,190.79,398.116,151.469z M429.884,422.756c-35.893,17.048-92.772,25.336-173.884,25.336
			s-137.991-8.287-173.884-25.336c-33.697-16.004-48.725-38.982-48.725-74.506c0-77.028,62.07-134.33,103.142-172.247
			c14.231-13.137,25.653-30.544,36.698-47.378c10.933-16.663,22.237-33.893,35.771-46.112C223.061,69.82,237.994,63.908,256,63.908
			c18.006,0,32.939,5.912,46.997,18.606c13.534,12.219,24.838,29.449,35.771,46.112c11.045,16.834,22.467,34.242,36.698,47.378
			c41.072,37.917,103.142,95.219,103.142,172.247C478.609,383.774,463.581,406.752,429.884,422.756z"/>
	</g>
</g>
<g>
	<g>
		<path d="M228.747,161.583l-19.9-26.813c-13.952,10.356-16.504,32.043-20.037,62.062c-4.33,36.795-9.718,82.587-36.428,108.827
			l23.401,23.819c35.096-34.481,41.508-88.963,46.189-128.745c1.759-14.943,4.166-35.406,7.528-39.841
			C229.497,160.896,229.266,161.198,228.747,161.583z"/>
	</g>
</g>
<g>
	<g>
		<path d="M323.188,196.833c-3.532-30.02-6.085-51.708-20.037-62.063l-19.9,26.813c-0.519-0.385-0.75-0.687-0.752-0.689
			c3.361,4.434,5.769,24.899,7.528,39.84c4.681,39.781,11.093,94.264,46.19,128.745l23.401-23.819
			C332.907,279.42,327.519,233.627,323.188,196.833z"/>
	</g>
</g>
</svg>