<?xml version="1.0" encoding="iso-8859-1"?>
<!-- Uploaded to: SVG Repo, www.svgrepo.com, Generator: SVG Repo Mixer Tools -->
<svg fill="#000000" height="800px" width="800px" version="1.1" id="Layer_1" xmlns="http://www.w3.org/2000/svg" xmlns:xlink="http://www.w3.org/1999/xlink" 
	 viewBox="0 0 204.827 204.827" xml:space="preserve">
<g>
	<g>
		<path d="M196.8,82.894h-9.505c-4.265-7.326-12.478-11.761-21.014-11.005c-4.023-4.532-9.771-7.253-15.859-7.459
			c-0.999-1.733-2.22-3.298-3.61-4.675l56.126-49.768l-4.904-5.531l-57.491,50.978c-2.872-1.336-6.033-2.1-9.332-2.1
			c-6.524,0-12.644,2.876-16.811,7.715c-0.444-0.314-0.921-0.568-1.385-0.846l27.516-56.991L133.878,0L106.12,57.492
			c-0.873-0.177-1.757-0.318-2.657-0.39c-4.207-4.763-10.157-7.462-16.591-7.462c-8.14,0-15.426,4.334-19.315,11.269
			c-5.661-0.736-11.467,0.779-16.024,4.149c-6.405-1.573-13.463-0.123-18.731,3.89c-6.942,1.961-12.49,7.223-14.872,13.946H6.505
			c-1.898,0-3.486,1.436-3.677,3.327c-0.621,6.203-0.938,12.543-0.938,18.843c0,37.415,10.785,72.321,30.364,98.291
			c0.7,0.927,1.794,1.472,2.951,1.472h132.894c1.158,0,2.252-0.545,2.952-1.472c19.579-25.969,30.364-60.876,30.364-98.291
			c0-6.3-0.317-12.64-0.938-18.843C200.286,84.33,198.698,82.894,196.8,82.894z M141.253,64.683c1.477,1.371,2.699,3.037,3.53,4.961
			c0.628,1.447,2.111,2.32,3.684,2.215c5.066-0.411,10.219,1.923,13.235,6.123c0.837,1.165,2.288,1.743,3.691,1.476
			c4.474-0.859,9.227,0.509,12.546,3.435h-57.222L141.253,64.683z M109.787,66.889c0.931,0.619,1.814,1.321,2.604,2.156
			c0.808,0.855,1.995,1.267,3.143,1.126c1.165-0.144,2.194-0.837,2.767-1.866c2.612-4.676,7.559-7.581,12.91-7.581
			c1.019,0,2.009,0.14,2.982,0.341L109.93,82.58l0.278,0.314h-8.148L109.787,66.889z M35.352,75.915
			c0.545-0.13,1.05-0.382,1.483-0.74c3.962-3.266,9.465-4.226,14.293-2.537c1.277,0.451,2.692,0.17,3.695-0.74
			c3.713-3.338,9.057-4.579,13.849-3.247c1.84,0.512,3.738-0.451,4.427-2.215c2.23-5.716,7.639-9.407,13.773-9.407
			c4.694,0,9.003,2.154,11.824,5.914c0.7,0.927,1.794,1.476,2.955,1.476c0.365,0,0.712,0.082,1.071,0.108l-8.868,18.367H26.037
			C28.029,79.451,31.376,76.875,35.352,75.915z M166.242,197.436H37.063c-2.576-3.526-4.964-7.238-7.201-11.085h143.581
			C171.206,190.198,168.816,193.91,166.242,197.436z M177.44,178.962H25.865c-10.777-21.496-16.586-46.986-16.586-73.898
			c0-4.933,0.202-9.891,0.599-14.78h10.854h164.366h8.328c0.397,4.889,0.599,9.847,0.599,14.78
			C194.026,131.976,188.217,157.465,177.44,178.962z"/>
	</g>
</g>
</svg>